# xmcd CD database file
#
# Track frame offsets:
#	150
#	13512
#	28809
#	41840
#	53402
#	64527
#	75632
#	89537
#	99577
#	112219
#	121862
#	133636
#	143542
#	156592
#	172196
#	185068
#	198735
#	212115
#	224035
#	236797
#	248766
#	261608
#	277361
#	289976
#	304328
#
# Disc length: 4197 seconds
#
# Revision: 0
# Processed by: cddbd v1.5.2PL0 Copyright (c) Steve Scherf et al.
# Submitted via: CDex 1.51
#
DISCID=96106319
DTITLE=Various Artist - Mambologia
DYEAR=2008
DGENRE=Salsa
TTITLE0=Mambologia - Luis Andres y Orquesta
TTITLE1=Sabrosa - Ramon Argueso
TTITLE2=Confusion of Mambo - Ray Terrace
TTITLE3=Dale la leche al Nene - Eddie Carbia
TTITLE4=El Nino Perdido - Freddy Roland
TTITLE5=Pachuco bailarin - Dave "Tico" Robbins
TTITLE6=Mambo is here to Stay - Machito
TTITLE7=Mambo Silvado - Conjunto Ingenieria
TTITLE8=Harlem Nightmare - Tito Rodriguez
TTITLE9=Arthurs Mambo - Belmonte Orchestra
TTITLE10=Cumbia - Orquesta Riverside
TTITLE11=Perdona - Rogelio y su Orquesta
TTITLE12=Yiddish Mambo - Mickey Katz
TTITLE13=Mambo a la Fernez - Wally Fernez
TTITLE14=Cuban Mambo - Xavier Cugat
TTITLE15=Mambo Burger - Jack "Bongo" Burger
TTITLE16=Mambo Oriental - Eddie Encinas
TTITLE17=Mambo Shmambo - Monchito and his Mambo Royals
TTITLE18=Mambocito Mio - Illionois Jacquet
TTITLE19=Mambo Infierno - Frank "El Pavo" Hernandez
TTITLE20=Misughina Mambo - Sexteto La Plata
TTITLE21=En un Mercado Persa - Sans Souci Orquesta
TTITLE22=Mambo Gitano - Orquesta de los Hermanos Castro
TTITLE23=Caravan - Chucho Sanoja y Orquesta
TTITLE24=Cafe Mambo - Emilio Reyes
EXTD=YEAR: 2008
EXTT0=
EXTT1=
EXTT2=
EXTT3=
EXTT4=
EXTT5=
EXTT6=
EXTT7=
EXTT8=
EXTT9=
EXTT10=
EXTT11=
EXTT12=
EXTT13=
EXTT14=
EXTT15=
EXTT16=
EXTT17=
EXTT18=
EXTT19=
EXTT20=
EXTT21=
EXTT22=
EXTT23=
EXTT24=
PLAYORDER=
